<svg width="24" height="25" viewBox="0 0 24 25" fill="none" xmlns="http://www.w3.org/2000/svg">
<g id="close" clip-path="url(#clip0_2_278)">
<path id="Vector" d="M18.3 6.45216C17.91 6.06216 17.28 6.06216 16.89 6.45216L12 11.3322L7.10997 6.44216C6.71997 6.05216 6.08997 6.05216 5.69997 6.44216C5.30997 6.83216 5.30997 7.46216 5.69997 7.85216L10.59 12.7422L5.69997 17.6322C5.30997 18.0222 5.30997 18.6522 5.69997 19.0422C6.08997 19.4322 6.71997 19.4322 7.10997 19.0422L12 14.1522L16.89 19.0422C17.28 19.4322 17.91 19.4322 18.3 19.0422C18.69 18.6522 18.69 18.0222 18.3 17.6322L13.41 12.7422L18.3 7.85216C18.68 7.47216 18.68 6.83216 18.3 6.45216Z" fill="white"/>
</g>
<defs>
<clipPath id="clip0_2_278">
<rect width="24" height="24" fill="white" transform="translate(0 0.742188)"/>
</clipPath>
</defs>
</svg>
