<svg width="32" height="32" viewBox="0 0 32 32" fill="none" xmlns="http://www.w3.org/2000/svg">
<g id="pictomate/social-media/facebook-plain">
<path id="shape" d="M18.188 29.83V20.047H21.45L22.071 16H18.188V13.374C18.188 12.267 18.73 11.188 20.469 11.188H22.234V7.74298C22.234 7.74298 20.632 7.46998 19.1 7.46998C15.902 7.46998 13.812 9.40798 13.812 12.917V16.001H10.257V20.048H13.812V29.831C7.119 28.781 2 22.989 2 16.001C2 8.26898 8.268 2.00098 16 2.00098C23.732 2.00098 30 8.26898 30 16.001C30 22.989 24.88 28.781 18.188 29.831V29.83Z" fill="white"/>
</g>
</svg>
