<svg width="32" height="32" viewBox="0 0 32 32" fill="none" xmlns="http://www.w3.org/2000/svg">
<g id="pictomate/social-media/instagram-plain">
<path id="shape" d="M27.928 11.052C27.87 9.775 27.667 8.902 27.37 8.139C27.063 7.35 26.653 6.681 25.986 6.014C25.319 5.347 24.65 4.937 23.861 4.63C23.098 4.333 22.225 4.13 20.948 4.072C19.668 4.014 19.259 4 16 4C12.741 4 12.332 4.014 11.052 4.072C9.775 4.13 8.902 4.333 8.139 4.63C7.35 4.937 6.681 5.347 6.014 6.014C5.347 6.681 4.937 7.35 4.63 8.139C4.333 8.902 4.13 9.775 4.072 11.052C4.014 12.332 4 12.741 4 16C4 19.259 4.014 19.668 4.072 20.948C4.13 22.225 4.333 23.098 4.63 23.861C4.937 24.65 5.347 25.319 6.014 25.986C6.681 26.653 7.35 27.063 8.139 27.37C8.902 27.667 9.775 27.869 11.052 27.928C12.332 27.986 12.741 28 16 28C19.259 28 19.668 27.986 20.948 27.928C22.225 27.87 23.098 27.667 23.861 27.37C24.65 27.063 25.319 26.653 25.986 25.986C26.653 25.319 27.063 24.65 27.37 23.861C27.667 23.098 27.869 22.225 27.928 20.948C27.986 19.668 28 19.259 28 16C28 12.741 27.986 12.332 27.928 11.052ZM25.768 20.849C25.715 22.019 25.519 22.654 25.355 23.077C25.137 23.637 24.877 24.037 24.457 24.457C24.037 24.877 23.637 25.137 23.077 25.355C22.654 25.519 22.019 25.715 20.849 25.768C19.584 25.826 19.204 25.838 16 25.838C12.796 25.838 12.416 25.826 11.151 25.768C9.981 25.715 9.346 25.519 8.923 25.355C8.363 25.137 7.963 24.877 7.543 24.457C7.123 24.037 6.863 23.637 6.645 23.077C6.481 22.654 6.285 22.019 6.232 20.849C6.174 19.584 6.162 19.204 6.162 16C6.162 12.796 6.174 12.416 6.232 11.151C6.285 9.981 6.481 9.346 6.645 8.923C6.863 8.363 7.123 7.963 7.543 7.543C7.963 7.123 8.363 6.863 8.923 6.645C9.346 6.481 9.981 6.285 11.151 6.232C12.416 6.174 12.796 6.162 16 6.162C19.204 6.162 19.584 6.174 20.849 6.232C22.019 6.285 22.654 6.481 23.077 6.645C23.637 6.863 24.037 7.123 24.457 7.543C24.877 7.963 25.137 8.363 25.355 8.923C25.519 9.346 25.715 9.981 25.768 11.151C25.826 12.416 25.838 12.796 25.838 16C25.838 19.204 25.826 19.584 25.768 20.849ZM16 9.838C12.597 9.838 9.838 12.597 9.838 16C9.838 19.403 12.597 22.162 16 22.162C19.403 22.162 22.162 19.403 22.162 16C22.162 12.597 19.403 9.838 16 9.838ZM16 20C13.791 20 12 18.209 12 16C12 13.791 13.791 12 16 12C18.209 12 20 13.791 20 16C20 18.209 18.209 20 16 20ZM23.846 9.594C23.846 10.389 23.201 11.034 22.406 11.034C21.611 11.034 20.966 10.389 20.966 9.594C20.966 8.799 21.611 8.154 22.406 8.154C23.201 8.154 23.846 8.799 23.846 9.594Z" fill="white"/>
</g>
</svg>
