<svg width="30" height="30" viewBox="0 0 30 30" fill="none" xmlns="http://www.w3.org/2000/svg">
<g id="pictomate/social-media/youtube-plain">
<path id="shape" d="M27.5765 8.89275C27.2746 7.80072 26.385 6.9416 25.2562 6.64978C23.2087 6.11963 15.0009 6.11963 15.0009 6.11963C15.0009 6.11963 6.79214 6.11963 4.74558 6.64978C3.61589 6.9416 2.72714 7.80163 2.42527 8.89275C1.87683 10.872 1.87683 15 1.87683 15C1.87683 15 1.87683 19.1288 2.42527 21.1072C2.72714 22.1992 3.61683 23.0583 4.74558 23.3502C6.79308 23.8803 15.0009 23.8803 15.0009 23.8803C15.0009 23.8803 23.2096 23.8803 25.2562 23.3502C26.3859 23.0583 27.2746 22.1983 27.5765 21.1072C28.125 19.1279 28.125 15 28.125 15C28.125 15 28.125 10.8711 27.5765 8.89275ZM12.375 18.8062V11.1937L19.1943 15L12.375 18.8062Z" fill="white"/>
</g>
</svg>
